<svg width="32" height="32" viewBox="0 0 32 32" fill="none" xmlns="http://www.w3.org/2000/svg">
<path d="M6.47613 18.4758C5.7952 18.4758 5.21227 18.2333 4.72734 17.7484C4.24245 17.2635 4 16.6805 4 15.9996C4 15.3187 4.24245 14.7357 4.72734 14.2508C5.21227 13.7659 5.7952 13.5234 6.47613 13.5234C7.15708 13.5234 7.74001 13.7659 8.22491 14.2508C8.70983 14.7357 8.95229 15.3187 8.95229 15.9996C8.95229 16.6805 8.70983 17.2635 8.22491 17.7484C7.74001 18.2333 7.15708 18.4758 6.47613 18.4758ZM16 18.4758C15.3191 18.4758 14.7361 18.2333 14.2512 17.7484C13.7663 17.2635 13.5238 16.6805 13.5238 15.9996C13.5238 15.3187 13.7663 14.7357 14.2512 14.2508C14.7361 13.7659 15.3191 13.5234 16 13.5234C16.6809 13.5234 17.2639 13.7659 17.7488 14.2508C18.2337 14.7357 18.4762 15.3187 18.4762 15.9996C18.4762 16.6805 18.2337 17.2635 17.7488 17.7484C17.2639 18.2333 16.6809 18.4758 16 18.4758ZM25.5239 18.4758C24.8429 18.4758 24.26 18.2333 23.7751 17.7484C23.2902 17.2635 23.0477 16.6805 23.0477 15.9996C23.0477 15.3187 23.2902 14.7357 23.7751 14.2508C24.26 13.7659 24.8429 13.5234 25.5239 13.5234C26.2048 13.5234 26.7877 13.7659 27.2727 14.2508C27.7575 14.7357 28 15.3187 28 15.9996C28 16.6805 27.7575 17.2635 27.2727 17.7484C26.7877 18.2333 26.2048 18.4758 25.5239 18.4758Z" fill="#343434"/>
</svg>
