<svg width="24" height="24" viewBox="0 0 24 24" fill="none" xmlns="http://www.w3.org/2000/svg">
<path d="M8.69639 17.3869C6.26878 17.3869 4.21297 16.5449 2.52897 14.8609C0.844943 13.1769 0.00292969 11.1211 0.00292969 8.69346C0.00292969 6.26585 0.844943 4.21003 2.52897 2.526C4.21297 0.842001 6.26878 0 8.69639 0C11.124 0 13.1798 0.842001 14.8638 2.526C16.5479 4.21003 17.3899 6.26585 17.3899 8.69346C17.3899 9.70861 17.2195 10.6782 16.8786 11.6022C16.5378 12.5263 16.0831 13.33 15.5145 14.0134L23.6941 22.193C23.8909 22.3898 23.9916 22.6373 23.9961 22.9352C24.0007 23.2332 23.9 23.4852 23.6941 23.6911C23.4881 23.897 23.2384 24 22.945 24C22.6516 24 22.4019 23.897 22.196 23.6911L14.0164 15.5115C13.3056 16.0984 12.4882 16.5577 11.5641 16.8894C10.6401 17.2211 9.6842 17.3869 8.69639 17.3869ZM8.69639 15.2546C10.528 15.2546 12.0795 14.619 13.3507 13.3478C14.6219 12.0766 15.2575 10.5251 15.2575 8.69346C15.2575 6.8618 14.6219 5.31036 13.3507 4.03914C12.0795 2.76791 10.528 2.1323 8.69639 2.1323C6.86473 2.1323 5.31329 2.76791 4.04206 4.03914C2.77086 5.31036 2.13526 6.8618 2.13526 8.69346C2.13526 10.5251 2.77086 12.0766 4.04206 13.3478C5.31329 14.619 6.86473 15.2546 8.69639 15.2546Z" fill="#343434"/>
</svg>
